<svg xmlns="http://www.w3.org/2000/svg" xmlns:xlink="http://www.w3.org/1999/xlink" width="40" height="40" viewBox="0 0 40 40"><defs><style>.a,.c{fill:#fff;}.a{stroke:#707070;}.b{clip-path:url(#a);}.c{stroke:#fff;}</style><clipPath id="a"><rect class="a" width="40" height="40" transform="translate(78 70)"/></clipPath></defs><g class="b" transform="translate(-78 -70)"><g transform="translate(79.333 77.301)"><g transform="translate(0 0)"><path class="c" d="M32.288,16.651a4.671,4.671,0,0,0,1.817-3.736,4.419,4.419,0,0,0-4.262-4.567,4.419,4.419,0,0,0-4.262,4.567A4.65,4.65,0,0,0,27.4,16.651a7.293,7.293,0,0,0-2.519,1.583,9.384,9.384,0,0,0-3.457-2.018,5.894,5.894,0,0,0,2.608-4.954,5.6,5.6,0,0,0-5.4-5.786,5.6,5.6,0,0,0-5.4,5.786,5.876,5.876,0,0,0,2.608,4.954,9.461,9.461,0,0,0-3.42,1.994,7.347,7.347,0,0,0-2.489-1.551,4.671,4.671,0,0,0,1.817-3.736A4.419,4.419,0,0,0,7.483,8.357a4.419,4.419,0,0,0-4.262,4.567,4.65,4.65,0,0,0,1.817,3.736A7.994,7.994,0,0,0,0,24.233v.522a.033.033,0,0,0,.03.032H9.064a11.394,11.394,0,0,0-.081,1.338v.538a4.076,4.076,0,0,0,3.93,4.211h11.45a4.076,4.076,0,0,0,3.93-4.211v-.538a11.394,11.394,0,0,0-.081-1.338H37.3a.033.033,0,0,0,.03-.032v-.522A8.025,8.025,0,0,0,32.288,16.651Zm-5.525-3.744a3.088,3.088,0,1,1,6.161,0,3.212,3.212,0,0,1-3.021,3.3h-.118A3.2,3.2,0,0,1,26.763,12.908ZM14.4,11.261a4.38,4.38,0,0,1,4.218-4.519,4.38,4.38,0,0,1,4.218,4.519,4.4,4.4,0,0,1-3.974,4.511h-.488A4.4,4.4,0,0,1,14.4,11.261ZM4.38,12.908a3.2,3.2,0,0,1,3.08-3.3,3.2,3.2,0,0,1,3.08,3.3,3.212,3.212,0,0,1-3.021,3.3H7.4A3.2,3.2,0,0,1,4.38,12.908Zm4.89,10.605H1.2a6.5,6.5,0,0,1,6.22-6.039h.089a6.009,6.009,0,0,1,4.026,1.607A10.629,10.629,0,0,0,9.271,23.513ZM27.1,26.663a2.856,2.856,0,0,1-2.748,2.944H12.9a2.856,2.856,0,0,1-2.748-2.944v-.538c0-4.915,3.664-8.935,8.222-9.078.081.008.17.008.251.008s.17,0,.251-.008c4.558.142,8.222,4.163,8.222,9.078Zm.879-3.15a10.6,10.6,0,0,0-2.238-4.4A6.041,6.041,0,0,1,29.8,17.474h.089a6.5,6.5,0,0,1,6.22,6.039Z" transform="translate(0 -5.476)"/></g></g></g></svg>