<svg xmlns="http://www.w3.org/2000/svg" xmlns:xlink="http://www.w3.org/1999/xlink" width="24" height="24" viewBox="0 0 24 24"><defs><style>.a,.c{fill:#fff;}.a{stroke:#707070;}.b{clip-path:url(#a);}.c{stroke:#fff;stroke-width:0.6px;}</style><clipPath id="a"><rect class="a" width="24" height="24" transform="translate(16 12)"/></clipPath></defs><g class="b" transform="translate(-16 -12)"><g transform="translate(17 13)"><g transform="translate(0 0)"><path class="c" d="M22,1.5A1.49,1.49,0,0,0,20.5,0,1.5,1.5,0,0,0,19.44.443c-.12.12-.339.38-.459.524a.356.356,0,0,0,.548.455c.188-.226.343-.4.414-.476A.793.793,0,0,1,20.5.713h0a.777.777,0,0,1,.779.783.794.794,0,0,1-.234.561,12.735,12.735,0,0,1-1.259.964A2.258,2.258,0,0,0,17.844,1.9H12.625a2.621,2.621,0,0,0-1.865.772L.327,13.1a1.117,1.117,0,0,0,0,1.579l6.99,6.99a1.118,1.118,0,0,0,1.579,0L19.329,11.241A2.62,2.62,0,0,0,20.1,9.376V4.157a2.257,2.257,0,0,0-.045-.45,13.641,13.641,0,0,0,1.5-1.146A1.5,1.5,0,0,0,22,1.5ZM19.388,9.376a1.912,1.912,0,0,1-.564,1.361L8.392,21.169a.4.4,0,0,1-.571,0L.831,14.18a.4.4,0,0,1,0-.571L11.264,3.176a1.912,1.912,0,0,1,1.361-.564h5.219a1.546,1.546,0,0,1,1.359.81c-.421.279-.892.575-1.393.867l-.048-.051a1.5,1.5,0,1,0,.388.677c.435-.253.853-.512,1.238-.762,0,0,0,0,0,0V9.376Zm-3-3.918a.356.356,0,0,0,.479.158q.313-.158.623-.326a.784.784,0,1,1-.331-.631q-.3.164-.613.321A.356.356,0,0,0,16.385,5.457Z" transform="translate(0 0)"/></g><g transform="translate(10.233 6.865)"><path class="c" d="M11.586,7.92a.389.389,0,0,0-.389.389V16.52a.389.389,0,1,0,.778,0V8.309A.389.389,0,0,0,11.586,7.92Z" transform="translate(-11.197 -7.92)"/></g><g transform="translate(6.344 9.742)"><path class="c" d="M9.808,11.26a1.633,1.633,0,1,0,.478,1.155A1.635,1.635,0,0,0,9.808,11.26Zm-.55,1.76a.855.855,0,1,1,.251-.6A.856.856,0,0,1,9.258,13.02Z" transform="translate(-7.021 -10.782)"/></g><g transform="translate(11.643 9.742)"><path class="c" d="M15.673,11.26a1.632,1.632,0,1,0,0,2.31A1.635,1.635,0,0,0,15.673,11.26Zm-.55,1.76a.855.855,0,1,1,0-1.21A.856.856,0,0,1,15.123,13.02Z" transform="translate(-12.886 -10.782)"/></g></g></g></svg>