<svg xmlns="http://www.w3.org/2000/svg" xmlns:xlink="http://www.w3.org/1999/xlink" width="40" height="40" viewBox="0 0 40 40"><defs><style>.a,.d{fill:#fff;}.a{stroke:#707070;}.b{clip-path:url(#a);}.c{fill:none;}</style><clipPath id="a"><rect class="a" width="40" height="40" transform="translate(79 70)"/></clipPath></defs><g class="b" transform="translate(-79 -70)"><g transform="translate(79 70)"><path class="c" d="M0,0H40V40H0Z"/><path class="d" d="M10.417,17.5H13.75v3.333H10.417ZM33.75,9.167V32.5a3.343,3.343,0,0,1-3.333,3.333H7.083A3.332,3.332,0,0,1,3.75,32.5L3.767,9.167A3.318,3.318,0,0,1,7.083,5.833H8.75V2.5h3.333V5.833H25.417V2.5H28.75V5.833h1.667A3.343,3.343,0,0,1,33.75,9.167ZM7.083,12.5H30.417V9.167H7.083Zm23.333,20V15.833H7.083V32.5ZM23.75,20.833h3.333V17.5H23.75Zm-6.667,0h3.333V17.5H17.083Z" transform="translate(1.25 0.833)"/></g></g></svg>