<svg xmlns="http://www.w3.org/2000/svg" xmlns:xlink="http://www.w3.org/1999/xlink" width="24" height="24" viewBox="0 0 24 24"><defs><style>.a,.c{fill:#fff;}.a{stroke:#707070;}.b{clip-path:url(#a);}.c{stroke:#fff;stroke-width:0.3px;}</style><clipPath id="a"><rect class="a" width="24" height="24" transform="translate(16 65)"/></clipPath></defs><g class="b" transform="translate(-16 -65)"><path class="c" d="M21.5,9.6l0,0-9-9A2.032,2.032,0,0,0,9.622.6l-9,9L.614,9.6a2.031,2.031,0,0,0,1.352,3.462c.021,0,.042,0,.063,0h.359v6.626a2.381,2.381,0,0,0,2.378,2.378H8.288a.647.647,0,0,0,.647-.647V16.231a1.086,1.086,0,0,1,1.085-1.085H12.1a1.086,1.086,0,0,1,1.085,1.085v5.195a.647.647,0,0,0,.647.647h3.523a2.381,2.381,0,0,0,2.378-2.378V13.068h.333A2.032,2.032,0,0,0,21.5,9.6Zm-.916,1.958a.734.734,0,0,1-.522.217h-.979a.647.647,0,0,0-.647.647v7.272a1.086,1.086,0,0,1-1.085,1.085H14.476V16.231A2.381,2.381,0,0,0,12.1,13.853H10.02a2.381,2.381,0,0,0-2.378,2.378v4.548H4.765A1.086,1.086,0,0,1,3.68,19.694V12.422a.647.647,0,0,0-.647-.647H2.041a.738.738,0,0,1-.509-1.26h0l9-9a.738.738,0,0,1,1.044,0l9,9,0,0a.74.74,0,0,1,0,1.044Zm0,0" transform="translate(16.978 66)"/></g></svg>