<svg xmlns="http://www.w3.org/2000/svg" xmlns:xlink="http://www.w3.org/1999/xlink" width="40" height="40" viewBox="0 0 40 40"><defs><style>.a,.c{fill:#fff;stroke:#fff;}.b{clip-path:url(#a);}.c{stroke-width:0.3px;}</style><clipPath id="a"><rect class="a" width="40" height="40" transform="translate(16 65)"/></clipPath></defs><g class="b" transform="translate(-16 -65)"><g transform="translate(16 65)"><g transform="translate(15.73)"><path class="c" d="M13.532,0a3.932,3.932,0,1,0,3.932,3.932A3.932,3.932,0,0,0,13.532,0Zm0,6.554a2.622,2.622,0,1,1,2.622-2.622A2.622,2.622,0,0,1,13.532,6.554Z" transform="translate(-9.6)"/></g><g transform="translate(13.763 8.52)"><path class="c" d="M16.92,5.2h-.155l-.138.069a5.225,5.225,0,0,1-4.657,0L11.832,5.2h-.155A3.281,3.281,0,0,0,8.4,8.477v3.932a1.966,1.966,0,0,0,1.966,1.966h7.865A1.966,1.966,0,0,0,20.2,12.409V8.477A3.281,3.281,0,0,0,16.92,5.2Zm1.966,7.209a.655.655,0,0,1-.655.655H10.366a.655.655,0,0,1-.655-.655V8.477a1.966,1.966,0,0,1,1.827-1.961,6.559,6.559,0,0,0,5.522,0,1.966,1.966,0,0,1,1.827,1.961Z" transform="translate(-8.4 -5.2)"/></g><g transform="translate(29.493 21.628)"><path class="c" d="M21.932,13.2a3.932,3.932,0,1,0,3.932,3.932A3.932,3.932,0,0,0,21.932,13.2Zm0,6.554a2.622,2.622,0,1,1,2.622-2.622A2.622,2.622,0,0,1,21.932,19.754Z" transform="translate(-18 -13.2)"/></g><g transform="translate(27.527 30.149)"><path class="c" d="M25.32,18.4h-.155l-.138.066a5.225,5.225,0,0,1-4.657,0l-.138-.066h-.155A3.281,3.281,0,0,0,16.8,21.677v3.932a1.966,1.966,0,0,0,1.966,1.966h7.865A1.966,1.966,0,0,0,28.6,25.609V21.677A3.281,3.281,0,0,0,25.32,18.4Zm1.966,7.209a.655.655,0,0,1-.655.655H18.766a.655.655,0,0,1-.655-.655V21.677a1.966,1.966,0,0,1,1.827-1.961,6.559,6.559,0,0,0,5.522,0,1.966,1.966,0,0,1,1.827,1.961Z" transform="translate(-16.8 -18.4)"/></g><g transform="translate(1.966 21.628)"><path class="c" d="M5.132,13.2a3.932,3.932,0,1,0,3.932,3.932A3.932,3.932,0,0,0,5.132,13.2Zm0,6.554a2.622,2.622,0,1,1,2.622-2.622A2.622,2.622,0,0,1,5.132,19.754Z" transform="translate(-1.2 -13.2)"/></g><g transform="translate(0 30.149)"><path class="c" d="M8.52,18.4H8.366l-.138.066a5.225,5.225,0,0,1-4.657,0L3.432,18.4H3.277A3.281,3.281,0,0,0,0,21.677v3.932a1.966,1.966,0,0,0,1.966,1.966H9.831A1.966,1.966,0,0,0,11.8,25.609V21.677A3.281,3.281,0,0,0,8.52,18.4Zm1.966,7.209a.655.655,0,0,1-.655.655H1.966a.655.655,0,0,1-.655-.655V21.677a1.966,1.966,0,0,1,1.827-1.961,6.559,6.559,0,0,0,5.522,0,1.966,1.966,0,0,1,1.827,1.961Z" transform="translate(0 -18.4)"/></g><g transform="translate(13.108 32.114)"><path class="c" d="M21.057,20.77v0a.655.655,0,0,0-.86-.346h0a14.538,14.538,0,0,1-9.348.644l.613-.18a.656.656,0,0,0-.368-1.258L8.471,20.4c-.01,0-.017.011-.026.014a.649.649,0,0,0-.169.094.572.572,0,0,0-.066.041.635.635,0,0,0-.161.223.656.656,0,0,0-.05.271,2.021,2.021,0,0,0,.066.262c0,.009,0,.02.007.029l1.311,2.508a.656.656,0,0,0,1.163-.607l-.533-1.02a15.776,15.776,0,0,0,10.7-.582A.655.655,0,0,0,21.057,20.77Z" transform="translate(-8 -19.6)"/></g><g transform="translate(24.905 5.13)"><path class="c" d="M27.461,15.233a.655.655,0,0,0-.927,0l-.927.927A15.706,15.706,0,0,0,16.112,3.184.655.655,0,0,0,15.6,4.39a14.4,14.4,0,0,1,8.669,11.583l-.739-.739a.655.655,0,0,0-.927.927l1.966,1.966a.655.655,0,0,0,.927,0h0l1.966-1.966A.655.655,0,0,0,27.461,15.233Z" transform="translate(-15.2 -3.131)"/></g><g transform="translate(3.932 3.943)"><path class="c" d="M12.867,4.138a.609.609,0,0,0-.017-.113c0-.006-.007-.01-.01-.016s0-.011,0-.016a.629.629,0,0,0-.062-.09.662.662,0,0,0-.075-.108.615.615,0,0,0-.128-.087.576.576,0,0,0-.073-.053l-2.622-1.2a.655.655,0,0,0-.544,1.192l1.357.621A15.706,15.706,0,0,0,2.4,18.125a.655.655,0,1,0,1.311,0A14.4,14.4,0,0,1,10.8,5.709l-.474.99a.655.655,0,0,0,.306.874.645.645,0,0,0,.284.066.655.655,0,0,0,.59-.372l1.311-2.735a.03.03,0,0,1,.005-.02.63.63,0,0,0,.035-.139.678.678,0,0,0,.025-.108A.654.654,0,0,0,12.867,4.138Z" transform="translate(-2.4 -2.407)"/></g></g></g></svg>