<svg xmlns="http://www.w3.org/2000/svg" xmlns:xlink="http://www.w3.org/1999/xlink" width="40" height="40" viewBox="0 0 40 40"><defs><style>.a,.c{fill:#fff;}.a{stroke:#fff;}.b{clip-path:url(#a);}</style><clipPath id="a"><rect class="a" width="40" height="40" transform="translate(71 95)"/></clipPath></defs><g class="b" transform="translate(-71 -95)"><g transform="translate(71 95)"><path class="c" d="M31.583,24.641c-.785-1.637-3.593-3.908-6.307-6.1-1.513-1.223-2.943-2.38-3.855-3.292a.833.833,0,0,0-.872-.2c-.562.2-.908.36-1.182.482a2.756,2.756,0,0,1-1.118.307.833.833,0,0,0-.61.365c-1.178,1.762-2.4,1.612-3.213,1.338-.26-.087-.307-.2-.332-.305-.175-.732.7-2.435,1.842-3.573,2.708-2.71,4.105-3.388,7.055-2.07,3.347,1.5,6.7,2.668,6.733,2.68a.834.834,0,1,0,.548-1.575c-.033-.012-3.32-1.16-6.6-2.628-3.822-1.708-5.918-.583-8.913,2.413-1.14,1.14-2.688,3.447-2.288,5.138a2.061,2.061,0,0,0,1.432,1.5,4.17,4.17,0,0,0,4.9-1.677,4.207,4.207,0,0,0,1.252-.4c.157-.07.34-.152.583-.25.953.9,2.24,1.937,3.595,3.032,2.45,1.982,5.228,4.228,5.853,5.528a.976.976,0,0,1-.248,1.252.918.918,0,0,1-1.027.2.833.833,0,0,0-1.3.775,1.007,1.007,0,0,1-.638.938,1.279,1.279,0,0,1-1.3.03.833.833,0,0,0-1.4.532,1.584,1.584,0,0,1-.983,1.277.879.879,0,0,1-.957-.148.843.843,0,0,0-.762-.193.832.832,0,0,0-.585.525c-.032.083-.1.283-.883.283a4.8,4.8,0,0,1-2.042-.7c-.585-.385-4.253-3.122-7.422-5.775-.445-.375-1.215-1.178-1.9-1.888-.6-.63-1.155-1.2-1.438-1.442A.834.834,0,0,0,6.127,22.3c.258.218.758.747,1.31,1.322.743.777,1.512,1.58,2.028,2.013,3.1,2.6,6.833,5.4,7.577,5.892A6.394,6.394,0,0,0,20,32.5a2.868,2.868,0,0,0,1.892-.557,2.594,2.594,0,0,0,1.9-.02,3.283,3.283,0,0,0,1.735-1.6,3.223,3.223,0,0,0,2.092-.3A2.828,2.828,0,0,0,29,28.566a2.725,2.725,0,0,0,1.912-.685A2.65,2.65,0,0,0,31.583,24.641Z"/><path class="c" d="M16.667,10.833h-7.5a.833.833,0,1,0,0,1.667h7.5a.833.833,0,1,0,0-1.667Z"/><path class="c" d="M34.025,22.868a.831.831,0,0,0-1.157-.227l-2.437,1.637a.833.833,0,0,0,.93,1.383L33.8,24.025A.834.834,0,0,0,34.025,22.868Z"/><path class="c" d="M28.852,26.845c-.6-.47-3.265-3.2-4.915-4.922a.833.833,0,0,0-1.2,1.153c.428.447,4.207,4.385,5.085,5.078a.83.83,0,0,0,.515.178.842.842,0,0,0,.657-.318A.833.833,0,0,0,28.852,26.845Z"/><path class="c" d="M25.522,28.516c-1-.8-3.507-3.463-4.073-4.08a.834.834,0,0,0-1.228,1.128c.03.032,3.023,3.263,4.26,4.253a.834.834,0,0,0,1.042-1.3Z"/><path class="c" d="M22.205,30.195c-1.188-1-3.62-3.59-4.095-4.1a.834.834,0,0,0-1.218,1.138c.683.732,3.01,3.2,4.238,4.235a.834.834,0,0,0,1.075-1.275Z"/><path class="c" d="M9.74,9.395C8.312,8.041,2.6,7.6.883,7.5A.833.833,0,0,0,0,8.333v15a.834.834,0,0,0,.833.833h5a.832.832,0,0,0,.792-.575C6.747,23.218,9.618,14.4,10,10.071A.829.829,0,0,0,9.74,9.395ZM5.225,22.5H1.667V9.226a25.318,25.318,0,0,1,6.618,1.182A87.444,87.444,0,0,1,5.225,22.5Z"/><path class="c" d="M39.167,9.166c-6.543,0-10.173,1.675-10.325,1.745a.829.829,0,0,0-.445.518.84.84,0,0,0,.092.677c1.03,1.658,4.255,10.868,4.875,13.115a.833.833,0,0,0,.8.612h5A.834.834,0,0,0,40,25V10A.833.833,0,0,0,39.167,9.166Zm-.833,15H34.79c-.79-2.573-3.123-9.283-4.425-12.057a27.142,27.142,0,0,1,7.968-1.267Z"/></g></g></svg>