<svg xmlns="http://www.w3.org/2000/svg" xmlns:xlink="http://www.w3.org/1999/xlink" width="40" height="40" viewBox="0 0 40 40"><defs><style>.a,.c{fill:#fff;}.a{stroke:#707070;}.b{clip-path:url(#a);}</style><clipPath id="a"><rect class="a" width="40" height="40" transform="translate(78 65)"/></clipPath></defs><g class="b" transform="translate(-78 -65)"><g transform="translate(78 70.156)"><path class="c" d="M36.094,0H14.844a.781.781,0,0,0,0,1.563h21.25a2.346,2.346,0,0,1,2.344,2.344V25.781a2.346,2.346,0,0,1-2.344,2.344H3.906a2.346,2.346,0,0,1-2.344-2.344V3.906A2.346,2.346,0,0,1,3.906,1.563H8.594A.781.781,0,0,0,8.594,0H3.906A3.911,3.911,0,0,0,0,3.906V25.781a3.911,3.911,0,0,0,3.906,3.906H36.094A3.911,3.911,0,0,0,40,25.781V3.906A3.911,3.911,0,0,0,36.094,0Zm0,0"/><path class="c" d="M10.664,3.047a7.5,7.5,0,1,0,7.5,7.5A7.509,7.509,0,0,0,10.664,3.047ZM7.272,15.416a3.676,3.676,0,0,1,6.785,0,5.919,5.919,0,0,1-6.785,0Zm1.971-5.245V9.877a1.422,1.422,0,0,1,2.843,0v.294a1.422,1.422,0,0,1-2.843,0Zm6.013,4.136a5.245,5.245,0,0,0-2.325-2.2,2.97,2.97,0,0,0,.717-1.938V9.877a2.984,2.984,0,0,0-5.968,0v.294A2.97,2.97,0,0,0,8.4,12.108a5.243,5.243,0,0,0-2.325,2.2,5.938,5.938,0,1,1,9.182,0Zm0,0" transform="translate(1.055 1.016)"/><path class="c" d="M18.008,13.672h11.25a.781.781,0,0,0,.781-.781V6.641a.781.781,0,0,0-.781-.781H18.008a.781.781,0,0,0-.781.781v6.25A.781.781,0,0,0,18.008,13.672Zm.781-6.25h9.688v4.688H18.789Zm0,0" transform="translate(5.742 1.953)"/><path class="c" d="M18.008,14.453h11.25a.781.781,0,0,0,0-1.562H18.008a.781.781,0,0,0,0,1.563Zm0,0" transform="translate(5.742 4.297)"/><path class="c" d="M17.455,16.568a.781.781,0,1,0-.229-.552A.787.787,0,0,0,17.455,16.568Zm0,0" transform="translate(5.742 5.078)"/><path class="c" d="M19.8,15.463a.781.781,0,1,0,.552-.229A.787.787,0,0,0,19.8,15.463Zm0,0" transform="translate(6.523 5.078)"/><path class="c" d="M27.7,15.234h-5a.781.781,0,0,0,0,1.563h5a.781.781,0,0,0,0-1.562Zm0,0" transform="translate(7.305 5.078)"/><path class="c" d="M15.788,16.255a.782.782,0,0,0-.781-.781H5.371a.781.781,0,1,0,0,1.563h9.636A.781.781,0,0,0,15.788,16.255Zm0,0" transform="translate(1.53 5.158)"/><path class="c" d="M6.309,17.817a.781.781,0,1,0,0,1.563h7.136a.781.781,0,1,0,0-1.562Zm0,0" transform="translate(1.842 5.939)"/><path class="c" d="M8.984,1.563A.781.781,0,0,0,9.766.781a.781.781,0,1,0-1.334.552A.787.787,0,0,0,8.984,1.563Zm0,0" transform="translate(2.734)"/></g></g></svg>