<svg xmlns="http://www.w3.org/2000/svg" xmlns:xlink="http://www.w3.org/1999/xlink" width="24" height="24" viewBox="0 0 24 24"><defs><style>.a{fill:#fff;stroke:#707070;}.b{clip-path:url(#a);}.c{fill:#707070;}</style><clipPath id="a"><rect class="a" width="24" height="24" transform="translate(246 665)"/></clipPath></defs><g class="b" transform="translate(-246 -665)"><g transform="translate(248.2 667)"><g transform="translate(1.8)"><path class="c" d="M10.3,20a2.006,2.006,0,0,0,2-2h-4A2.006,2.006,0,0,0,10.3,20Zm6.5-6V8.5a6.435,6.435,0,0,0-5-6.3V1.5a1.5,1.5,0,1,0-3,0v.7a6.435,6.435,0,0,0-5,6.3V14l-2,2v1h17V16Z" transform="translate(-1.8)"/></g></g></g></svg>