<svg xmlns="http://www.w3.org/2000/svg" xmlns:xlink="http://www.w3.org/1999/xlink" width="40" height="40" viewBox="0 0 40 40"><defs><style>.a,.c{fill:#fff;}.a{stroke:#707070;}.b{clip-path:url(#a);}</style><clipPath id="a"><rect class="a" width="40" height="40" transform="translate(-0.21)"/></clipPath></defs><g class="b" transform="translate(0.21)"><g transform="translate(0 0.048)"><path class="c" d="M32.156,23.648a8.44,8.44,0,1,0-14.08,6.274,8.448,8.448,0,0,0,14.08-6.274ZM23.7,30.9A7.26,7.26,0,1,1,28.565,18.24,7.263,7.263,0,0,1,23.7,30.9Zm0,0" transform="translate(5.092 5.065)"/><path class="c" d="M22.889,17.02a.59.59,0,0,0-.591.59v4.833H18.343a.59.59,0,1,0,0,1.181h4.546a.59.59,0,0,0,.59-.59V17.61a.59.59,0,0,0-.59-.59Zm0,0" transform="translate(5.918 5.673)"/><path class="c" d="M20.673,2.876H4.067A1.631,1.631,0,0,0,2.439,4.506v5.788a1.631,1.631,0,0,0,1.628,1.629H20.673A1.631,1.631,0,0,0,22.3,10.294V4.506a1.631,1.631,0,0,0-1.628-1.629Zm.448,7.417a.449.449,0,0,1-.448.449H4.067a.449.449,0,0,1-.448-.449V4.506a.449.449,0,0,1,.448-.449H20.673a.449.449,0,0,1,.448.449Zm0,0" transform="translate(0.813 0.959)"/><path class="c" d="M18.528,4.72H4.939a.59.59,0,1,0,0,1.181H18.528a.59.59,0,0,0,0-1.181Zm0,0" transform="translate(1.45 1.573)"/><path class="c" d="M12.934,6.932h-2.21a.59.59,0,0,0,0,1.181h2.21a.59.59,0,0,0,0-1.181Zm0,0" transform="translate(3.378 2.311)"/><path class="c" d="M10.291,6.932H4.939a.59.59,0,1,0,0,1.181h5.352a.59.59,0,0,0,0-1.181Zm0,0" transform="translate(1.45 2.311)"/><path class="c" d="M18.528,13.415H4.939a.59.59,0,1,0,0,1.181H18.528a.59.59,0,0,0,0-1.181Zm0,0" transform="translate(1.45 4.472)"/><path class="c" d="M8.812,15.627H4.939a.59.59,0,1,0,0,1.181H8.812a.59.59,0,0,0,0-1.181Zm0,0" transform="translate(1.45 5.209)"/><path class="c" d="M4.939,23.291h9.726a.59.59,0,0,0,0-1.181H4.939a.59.59,0,1,0,0,1.181Zm0,0" transform="translate(1.45 7.37)"/><path class="c" d="M9.661,24.321H4.939a.59.59,0,1,0,0,1.181H9.661a.59.59,0,0,0,0-1.181Zm0,0" transform="translate(1.45 8.107)"/><path class="c" d="M13.876,24.321H10.252a.59.59,0,1,0,0,1.181h3.624a.59.59,0,0,0,0-1.181Zm0,0" transform="translate(3.22 8.107)"/><path class="c" d="M36.284,20.376a11.177,11.177,0,0,0-9.919-2.595V1.9a1.9,1.9,0,0,0-1.9-1.9H1.9A1.9,1.9,0,0,0,0,1.9V38.005a1.9,1.9,0,0,0,1.9,1.9H24.467a1.891,1.891,0,0,0,1.218-.442,11.234,11.234,0,0,0,7.072-.276.59.59,0,1,0-.415-1.1,10.014,10.014,0,1,1,1.981-1.011.59.59,0,1,0,.651.984,11.2,11.2,0,0,0,1.31-17.677ZM19.47,34.887H4.88a.449.449,0,0,1-.448-.449V28.651A.449.449,0,0,1,4.88,28.2H17.621a11.208,11.208,0,0,0,1.849,6.685Zm2.463-15.018A11.252,11.252,0,0,0,19,23.294H4.88a.449.449,0,0,1-.448-.449V17.058a.449.449,0,0,1,.448-.449H21.486a.449.449,0,0,1,.448.449Zm3.252-1.756a11.087,11.087,0,0,0-2.072.952V17.058a1.631,1.631,0,0,0-1.628-1.629H4.88a1.631,1.631,0,0,0-1.628,1.629v5.788A1.631,1.631,0,0,0,4.88,24.475H18.44a11.128,11.128,0,0,0-.7,2.547H4.88a1.631,1.631,0,0,0-1.628,1.629v5.788A1.631,1.631,0,0,0,4.88,36.068H20.371A11.214,11.214,0,0,0,23.8,38.723H1.9a.719.719,0,0,1-.719-.718V1.9A.719.719,0,0,1,1.9,1.181H24.467a.719.719,0,0,1,.719.718Zm0,0" transform="translate(0 0)"/></g></g></svg>