<svg xmlns="http://www.w3.org/2000/svg" xmlns:xlink="http://www.w3.org/1999/xlink" width="40" height="40" viewBox="0 0 40 40"><defs><style>.a,.c{fill:#fff;stroke:#fff;}.b{clip-path:url(#a);}.c{stroke-width:0.4px;}</style><clipPath id="a"><rect class="a" width="40" height="40" transform="translate(71 95)"/></clipPath></defs><g class="b" transform="translate(-71 -95)"><g transform="translate(72 96)"><g transform="translate(2.138 29.782)"><path class="c" d="M2.994,31.374a.742.742,0,0,0-.742.742v.01a.742.742,0,1,0,1.483,0v-.01A.742.742,0,0,0,2.994,31.374Z" transform="translate(-2.252 -31.374)"/></g><g transform="translate(8.589 13.142)"><path class="c" d="M10.314,14.062a.741.741,0,1,0,.217.524A.748.748,0,0,0,10.314,14.062Z" transform="translate(-9.048 -13.845)"/></g><path class="c" d="M37.968,8.454a.74.74,0,0,0-.215-.524L30.04.217A.74.74,0,0,0,29.515,0V0H9.048A2.227,2.227,0,0,0,6.823,2.225v8.269a.742.742,0,0,0,1.483,0V2.225a.742.742,0,0,1,.742-.742H28.774V6.971A2.227,2.227,0,0,0,31,9.2h5.488V35.745a.742.742,0,0,1-.742.742H9.048a.742.742,0,0,1-.742-.742V33.929q.4.037.811.037h10a2.662,2.662,0,0,0,2.659-2.659V31.27a2.643,2.643,0,0,0-.275-1.177,2.661,2.661,0,0,0,2.621-2.658V27.4a2.651,2.651,0,0,0-.82-1.917,2.651,2.651,0,0,0,.82-1.917v-.037a2.663,2.663,0,0,0-1.94-2.56,2.643,2.643,0,0,0,.326-1.275v-.037A2.662,2.662,0,0,0,19.853,17H14.242l1.7-3.682a4.193,4.193,0,0,0-.618-4.475l-.843-.986a.742.742,0,0,0-.564-.259h-.006a.742.742,0,0,0-.565.269l-2.578,3.116a.742.742,0,1,0,1.143.946l2.016-2.437.27.316a2.706,2.706,0,0,1,.4,2.888l-2.191,4.735a.742.742,0,0,0,.673,1.053h6.771a1.177,1.177,0,0,1,1.176,1.176v.037a1.177,1.177,0,0,1-1.176,1.176H16.322a.742.742,0,1,0,0,1.483h5.145a1.177,1.177,0,0,1,1.176,1.176v.037a1.177,1.177,0,0,1-1.176,1.176H16.322a.742.742,0,1,0,0,1.483h5.145A1.177,1.177,0,0,1,22.643,27.4v.037a1.177,1.177,0,0,1-1.176,1.176H16.322a.742.742,0,1,0,0,1.483h2.8A1.177,1.177,0,0,1,20.3,31.27v.037a1.177,1.177,0,0,1-1.176,1.176h-10a7.35,7.35,0,0,1-2.694-.509l-.935-.367V19.692l2.267-2.74a.742.742,0,1,0-1.143-.946l-1.282,1.55a.74.74,0,0,0-.583-.284h-4A.742.742,0,0,0,0,18.014v15.21a.742.742,0,0,0,.742.742h4a.742.742,0,0,0,.742-.742V33.2l.393.154a8.9,8.9,0,0,0,.941.31v2.082A2.227,2.227,0,0,0,9.048,37.97h26.7a2.227,2.227,0,0,0,2.225-2.225V8.454ZM31,7.713a.742.742,0,0,1-.742-.742V2.532l5.181,5.181ZM4,32.482H1.483V18.756H4Z"/><g transform="translate(30.517 11.569)"><path class="c" d="M33.414,12.4a.741.741,0,1,0,.217.524A.747.747,0,0,0,33.414,12.4Z" transform="translate(-32.148 -12.188)"/></g><g transform="translate(17.799 11.569)"><path class="c" d="M29.207,12.188H19.492a.742.742,0,0,0,0,1.483h9.715a.742.742,0,0,0,0-1.483Z" transform="translate(-18.75 -12.188)"/></g><g transform="translate(22.359 15.425)"><path class="c" d="M32.485,16.25H24.3a.742.742,0,0,0,0,1.483h8.189a.742.742,0,1,0,0-1.483Z" transform="translate(-23.555 -16.25)"/></g><g transform="translate(25.567 19.338)"><path class="c" d="M32.625,20.372h-4.95a.742.742,0,1,0,0,1.483h4.95a.742.742,0,0,0,0-1.483Z" transform="translate(-26.934 -20.372)"/></g><g transform="translate(25.567 23.194)"><path class="c" d="M32.657,24.434H27.675a.742.742,0,1,0,0,1.483h4.982a.742.742,0,0,0,0-1.483Z" transform="translate(-26.934 -24.434)"/></g><g transform="translate(17.799 7.713)"><path class="c" d="M25.647,8.125H19.492a.742.742,0,1,0,0,1.483h6.155a.742.742,0,1,0,0-1.483Z" transform="translate(-18.75 -8.125)"/></g></g></g></svg>