<svg xmlns="http://www.w3.org/2000/svg" xmlns:xlink="http://www.w3.org/1999/xlink" width="40" height="40" viewBox="0 0 40 40"><defs><style>.a,.d{fill:#fff;}.a{stroke:#707070;}.b{clip-path:url(#a);}.c{fill:none;}</style><clipPath id="a"><rect class="a" width="40" height="40" transform="translate(78 65)"/></clipPath></defs><g class="b" transform="translate(-78 -65)"><g transform="translate(78 65)"><path class="c" d="M0,0H40V40H0Z"/><path class="d" d="M37.314,15.611l-9.858-.855-3.85-9.072a2.038,2.038,0,0,0-3.748,0l-3.85,9.083L6.174,15.6a2.033,2.033,0,0,0-1.167,3.565l7.475,6.477-2.237,9.623a2.032,2.032,0,0,0,3.035,2.2l8.452-5.092,8.453,5.112a2.032,2.032,0,0,0,3.035-2.2l-2.24-9.633,7.475-6.477a2.028,2.028,0,0,0-1.14-3.565ZM21.732,28.566l-7.658,4.618,2.037-8.717L9.349,18.606l8.922-.773,3.462-8.21,3.483,8.228,8.922.773-6.762,5.867,2.037,8.717Z" transform="translate(-1.899 -1.851)"/></g></g></svg>