<svg xmlns="http://www.w3.org/2000/svg" xmlns:xlink="http://www.w3.org/1999/xlink" width="40" height="40" viewBox="0 0 40 40"><defs><style>.a,.c{fill:#fff;}.a{stroke:#707070;}.b{clip-path:url(#a);}</style><clipPath id="a"><rect class="a" width="40" height="40" transform="translate(78 65)"/></clipPath></defs><g class="b" transform="translate(-78 -65)"><g transform="translate(81.449 64.997)"><path class="c" d="M35.566,33.906,30.8,24.167a7.406,7.406,0,0,0,.085-1,3.47,3.47,0,0,0,2.122-5.087,3.548,3.548,0,0,0,.027-5.563,3.545,3.545,0,0,0-2.143-5.138,3.462,3.462,0,0,0-3.9-3.878,3.455,3.455,0,0,0-5.07-2.137,3.527,3.527,0,0,0-5.552-.03A3.53,3.53,0,0,0,11.251,3.5a3.462,3.462,0,0,0-3.87,3.91A3.47,3.47,0,0,0,5.259,12.5a3.548,3.548,0,0,0-.022,5.568,3.545,3.545,0,0,0,2.143,5.138,7.287,7.287,0,0,0,.083.975L2.709,33.906a1.167,1.167,0,0,0,1.135,1.683l5.085-.355,2.845,4.247a1.167,1.167,0,0,0,2.03-.147l4.333-8.928a2.958,2.958,0,0,0,1.985,0l4.348,8.928a1.167,1.167,0,0,0,2.028.14l2.845-4.247,5.085.355A1.167,1.167,0,0,0,35.564,33.9Zm-22.98,2.577L10.5,33.366a1.167,1.167,0,0,0-1.055-.517l-3.735.262,3.212-6.578a4.78,4.78,0,0,0,2.358.555,3.405,3.405,0,0,0,4.785,2.235Zm4.885-9.458a1.167,1.167,0,0,0-1.315-.265c-.61.265-1.533.667-1.955.492s-.8-1.132-1.05-1.765a1.175,1.175,0,0,0-1.11-.743c-.677.012-1.7.028-2.022-.3s-.31-1.333-.3-2.008a1.167,1.167,0,0,0-.743-1.11c-2.055-.805-2.167-1.055-1.285-3.068a1.167,1.167,0,0,0-.26-1.312c-1.578-1.522-1.572-1.8.02-3.333a1.167,1.167,0,0,0,.263-1.308c-.265-.615-.667-1.543-.49-1.972s1.128-.8,1.757-1.053a1.167,1.167,0,0,0,.743-1.113c-.012-.68-.028-1.71.3-2.037s1.333-.308,2-.3a1.177,1.177,0,0,0,1.113-.74c.8-2.062,1.045-2.167,3.047-1.292A1.167,1.167,0,0,0,17.5,3.537c1.508-1.577,1.782-1.573,3.305.02a1.167,1.167,0,0,0,1.315.265c.61-.265,1.533-.667,1.955-.492s.8,1.132,1.05,1.765a1.167,1.167,0,0,0,1.11.742c.677-.012,1.7-.028,2.023.3s.31,1.333.3,2.008a1.167,1.167,0,0,0,.743,1.11c2.055.8,2.167,1.055,1.285,3.068a1.167,1.167,0,0,0,.26,1.312c1.578,1.522,1.572,1.8-.02,3.333a1.167,1.167,0,0,0-.263,1.308c.265.615.667,1.543.49,1.972s-1.128.805-1.757,1.053a1.167,1.167,0,0,0-.74,1.108c.012.68.028,1.71-.3,2.037s-1.333.308-2,.3a1.178,1.178,0,0,0-1.112.747c-.8,2.06-1.045,2.167-3.047,1.292a1.167,1.167,0,0,0-1.318.262c-1.508,1.577-1.782,1.573-3.305-.02Zm11.357,5.833a1.167,1.167,0,0,0-1.055.517l-2.087,3.117-3.463-7.125a3.48,3.48,0,0,0,4.8-2.27,4.72,4.72,0,0,0,2.333-.555l3.213,6.577Z" transform="translate(-2.587 0.002)"/><path class="c" d="M21.425,18.412l-.532-3.352,2.39-2.388a1.167,1.167,0,0,0-.647-1.987L19.3,10.163,17.776,7.137a1.167,1.167,0,0,0-2.093,0l-1.527,3.027-3.333.522a1.167,1.167,0,0,0-.653,1.987l2.39,2.388-.538,3.352a1.167,1.167,0,0,0,1.693,1.227l3-1.547,3,1.547a1.167,1.167,0,0,0,1.693-1.227Zm-2.682-1.917c-2.317-1.192-1.715-1.193-4.033,0,.415-2.582.6-2-1.252-3.857,2.58-.4,2.1-.048,3.268-2.377,1.167,2.333.683,1.973,3.268,2.377C18.143,14.488,18.328,13.912,18.743,16.495Z" transform="translate(-0.176 2.165)"/></g></g></svg>