<svg xmlns="http://www.w3.org/2000/svg" xmlns:xlink="http://www.w3.org/1999/xlink" width="40" height="40" viewBox="0 0 40 40"><defs><style>.a,.c{fill:#fff;}.a{stroke:#707070;}.b{clip-path:url(#a);}</style><clipPath id="a"><rect class="a" width="40" height="40" transform="translate(79 65)"/></clipPath></defs><g class="b" transform="translate(-79 -65)"><g transform="translate(79 65)"><path class="c" d="M37.258,12.1H32.742V.484H.484v40H32.742V28.871h4.516a3.229,3.229,0,0,0,3.226-3.226V15.323A3.229,3.229,0,0,0,37.258,12.1Zm-20,3.871H39.194v2.581H17.258Zm21.817-1.29h-21.7a1.933,1.933,0,0,1,1.817-1.29H37.258A1.933,1.933,0,0,1,39.075,14.677ZM31.452,39.194H1.774V1.774H31.452V12.1H19.194a3.229,3.229,0,0,0-3.226,3.226V25.645a3.229,3.229,0,0,0,3.226,3.226H31.452Zm5.806-11.613H19.194a1.938,1.938,0,0,1-1.935-1.935V19.839H39.194v5.806A1.938,1.938,0,0,1,37.258,27.581Z" transform="translate(-0.484 -0.484)"/><path class="c" d="M27.9,15.968a2.546,2.546,0,0,0-1.288.358,2.553,2.553,0,0,0-1.292-.358,2.581,2.581,0,0,0,0,5.161,2.553,2.553,0,0,0,1.292-.358,2.546,2.546,0,0,0,1.288.358,2.581,2.581,0,0,0,0-5.161Zm-3.871,2.581a1.292,1.292,0,0,1,1.29-1.29,1.23,1.23,0,0,1,.332.051,2.482,2.482,0,0,0,0,2.479,1.23,1.23,0,0,1-.332.051A1.292,1.292,0,0,1,24.032,18.548Zm3.871,1.29a1.29,1.29,0,1,1,1.29-1.29A1.292,1.292,0,0,1,27.9,19.839Z" transform="translate(6.935 4.677)"/><path class="c" d="M14.032,18.871h1.29v1.29h-1.29Z" transform="translate(4.032 5.645)"/><path class="c" d="M15.968,18.871h1.29v1.29h-1.29Z" transform="translate(4.677 5.645)"/><path class="c" d="M17.9,18.871h1.29v1.29H17.9Z" transform="translate(5.323 5.645)"/><path class="c" d="M14.032,16.935h7.742v1.29H14.032Z" transform="translate(4.032 5)"/><path class="c" d="M5.968,11.452a1.292,1.292,0,0,1-1.29-1.29H3.387A2.578,2.578,0,0,0,5.323,12.65v1.382h1.29v-1.29H8.548V10.161A2.583,2.583,0,0,0,5.968,7.581a1.292,1.292,0,0,1-1.29-1.29V5h1.29a1.292,1.292,0,0,1,1.29,1.29h1.29A2.578,2.578,0,0,0,6.613,3.8V2.419H5.323V3.71H3.387V6.29A2.583,2.583,0,0,0,5.968,8.871a1.292,1.292,0,0,1,1.29,1.29v1.29Z" transform="translate(0.484 0.161)"/><path class="c" d="M21.774,2.419h1.29V3.71h-1.29Z" transform="translate(6.613 0.161)"/><path class="c" d="M19.839,2.419h1.29V3.71h-1.29Z" transform="translate(5.968 0.161)"/><path class="c" d="M17.9,2.419h1.29V3.71H17.9Z" transform="translate(5.323 0.161)"/><path class="c" d="M13.065,4.355h12.9v1.29h-12.9Z" transform="translate(3.71 0.806)"/><path class="c" d="M13.065,6.29h12.9v1.29h-12.9Z" transform="translate(3.71 1.452)"/><path class="c" d="M12.742,24.032a5.161,5.161,0,1,0-5.161,5.161h.645V24.677h4.516ZM6.935,27.85a3.869,3.869,0,0,1,0-7.63v7.63Zm1.29-4.463V20.22A3.878,3.878,0,0,1,11.4,23.387Z" transform="translate(0.161 5.645)"/><path class="c" d="M7.742,30h.645a5.167,5.167,0,0,0,5.161-5.161v-.645H7.742Zm1.29-4.516H12.2a3.882,3.882,0,0,1-3.172,3.172Z" transform="translate(1.935 7.419)"/><path class="c" d="M21.774,27.581h1.29v1.29h-1.29Z" transform="translate(6.613 8.548)"/><path class="c" d="M19.839,27.581h1.29v1.29h-1.29Z" transform="translate(5.968 8.548)"/><path class="c" d="M17.9,27.581h1.29v1.29H17.9Z" transform="translate(5.323 8.548)"/><path class="c" d="M13.065,25.645h12.9v1.29h-12.9Z" transform="translate(3.71 7.903)"/><path class="c" d="M13.065,23.71h12.9V25h-12.9Z" transform="translate(3.71 7.258)"/><path class="c" d="M2.419,12.1H14.032v1.29H2.419Z" transform="translate(0.161 3.387)"/><path class="c" d="M2.419,14.032H14.032v1.29H2.419Z" transform="translate(0.161 4.032)"/><path class="c" d="M2.419,15.968H14.032v1.29H2.419Z" transform="translate(0.161 4.677)"/></g></g></svg>