<svg xmlns="http://www.w3.org/2000/svg" xmlns:xlink="http://www.w3.org/1999/xlink" width="40" height="40" viewBox="0 0 40 40"><defs><style>.a,.c{fill:#fff;}.a{stroke:#707070;}.b{clip-path:url(#a);}</style><clipPath id="a"><rect class="a" width="40" height="40" transform="translate(78 65)"/></clipPath></defs><g class="b" transform="translate(-78 -65)"><g transform="translate(78.001 65)"><path class="c" d="M38.968,12.588a3.52,3.52,0,0,0-4.972,0L30.47,16.117V6.83a3.492,3.492,0,0,0-1.03-2.486L26.126,1.03A3.492,3.492,0,0,0,23.64,0H3.517A3.52,3.52,0,0,0,0,3.516V36.484A3.52,3.52,0,0,0,3.517,40H26.954a3.52,3.52,0,0,0,3.516-3.516V26.065l8.5-8.505A3.514,3.514,0,0,0,38.968,12.588ZM23.439,2.344a1.279,1.279,0,0,1,1.03.343L27.783,6a1.279,1.279,0,0,1,.343,1.03H23.439Zm4.687,34.141a1.173,1.173,0,0,1-1.172,1.172H3.517a1.173,1.173,0,0,1-1.172-1.172V3.516A1.173,1.173,0,0,1,3.517,2.344H21.095V8.2a1.172,1.172,0,0,0,1.172,1.172h5.859v9.088l-3.458,3.46L23.012,23.58a1.172,1.172,0,0,0-.283.458L21.072,29.01a1.172,1.172,0,0,0,1.482,1.482l4.972-1.657a1.171,1.171,0,0,0,.458-.283l.142-.142v8.075ZM25.5,24.408l1.657,1.657-.633.633-2.486.829.829-2.486Zm3.314,0-1.657-1.657,5.633-5.638,1.657,1.657Zm8.5-8.505L36.1,17.112l-1.657-1.657,1.208-1.209A1.172,1.172,0,1,1,37.31,15.9Z" transform="translate(-0.001)"/><g transform="translate(4.688 11.719)"><path class="c" d="M21.095,8.789H4.689a1.172,1.172,0,0,0,0,2.344H21.095a1.172,1.172,0,0,0,0-2.344Z" transform="translate(-3.517 -8.789)"/></g><g transform="translate(4.688 16.406)"><path class="c" d="M16.407,12.3H4.689a1.172,1.172,0,0,0,0,2.344H16.407a1.172,1.172,0,0,0,0-2.344Z" transform="translate(-3.517 -12.305)"/></g><g transform="translate(4.688 21.094)"><path class="c" d="M16.407,15.82H4.689a1.172,1.172,0,0,0,0,2.344H16.407a1.172,1.172,0,0,0,0-2.344Z" transform="translate(-3.517 -15.82)"/></g><g transform="translate(4.688 25.781)"><path class="c" d="M16.407,19.336H4.689a1.172,1.172,0,0,0,0,2.344H16.407a1.172,1.172,0,0,0,0-2.344Z" transform="translate(-3.517 -19.336)"/></g><g transform="translate(14.063 32.969)"><path class="c" d="M18.751,24.727H11.72a1.172,1.172,0,0,0,0,2.344h7.031a1.172,1.172,0,0,0,0-2.344Z" transform="translate(-10.548 -24.727)"/></g></g></g></svg>